<svg xmlns="http://www.w3.org/2000/svg" viewBox="0 0 512 512" width="100%" height="100%">
  <defs>
    <linearGradient id="bgGlow" x1="0%" y1="0%" x2="100%" y2="100%">
      <stop offset="0%" stop-color="#0F172A"/>
      <stop offset="100%" stop-color="#020617"/>
    </linearGradient>
    <linearGradient id="emeraldGrad" x1="0%" y1="100%" x2="100%" y2="0%">
      <stop offset="0%" stop-color="#059669"/>
      <stop offset="50%" stop-color="#10B981"/>
      <stop offset="100%" stop-color="#34D399"/>
    </linearGradient>
    <linearGradient id="glassGrad" x1="0%" y1="0%" x2="100%" y2="100%">
      <stop offset="0%" stop-color="#10B981" stop-opacity="0.45"/>
      <stop offset="100%" stop-color="#059669" stop-opacity="0.15"/>
    </linearGradient>
    <filter id="emeraldGlow" x="-20%" y="-20%" width="140%" height="140%">
      <feGaussianBlur stdDeviation="12" result="blur"/>
      <feComposite in="SourceGraphic" in2="blur" operator="over"/>
    </filter>
  </defs>
  <rect width="512" height="512" rx="112" fill="url(#bgGlow)"/>
  <path d="M 96 380 Q 200 340 280 260 T 416 140" fill="none" stroke="#10B981" stroke-width="4" stroke-opacity="0.2" stroke-dasharray="8 8"/>
  <g filter="url(#emeraldGlow)">
    <rect x="128" y="128" width="64" height="256" rx="16" fill="url(#emeraldGrad)"/>
    <rect x="208" y="240" width="112" height="48" rx="14" fill="url(#glassGrad)" stroke="#34D399" stroke-opacity="0.3" stroke-width="2"/>
    <path d="M 208 128 L 320 128 C 330 128, 338 122, 344 114 L 364 88 C 372 78, 386 84, 384 96 L 384 160 C 384 168, 376 176, 368 176 L 208 176 Z" fill="url(#emeraldGrad)"/>
    <path d="M 336 80 L 384 80 L 384 128 Z" fill="#6EE7B7"/>
  </g>
  <circle cx="384" cy="80" r="6" fill="#A7F3D0"/>
</svg>
